mtllib material.mtl
usemtl material_0
v -0.01808200 -0.10363500 -0.01154500
v -0.01808200 -0.10363500 -0.01154500
v -0.01808200 -0.10363500 -0.01154500
v -0.01808200 -0.10442800 -0.01194200
v -0.01808200 -0.10442800 -0.01194200
v -0.01808200 -0.10363500 -0.01194200
v -0.01808200 -0.10363500 -0.01194200
v -0.01808200 -0.10442800 -0.01154500
v -0.01808200 -0.10442800 -0.01154500
v -0.01808200 -0.10442800 -0.01154500
v -0.01887600 -0.10442800 -0.01194200
v -0.01887600 -0.10442800 -0.01194200
v -0.01887600 -0.10442800 -0.01154500
v -0.01887600 -0.10442800 -0.01154500
v -0.01887600 -0.10442800 -0.01154500
v -0.01887600 -0.10363500 -0.01194200
v -0.01887600 -0.10363500 -0.01194200
v -0.01887600 -0.10363500 -0.01154500
v -0.01887600 -0.10363500 -0.01154500
v -0.01887600 -0.10363500 -0.01154500
v -0.01887600 -0.05045300 -0.01154500
v -0.01887600 -0.05045300 -0.01154500
v -0.01887600 -0.05045300 -0.01154500
v -0.01808200 -0.05045300 -0.01194200
v -0.01808200 -0.05045300 -0.01194200
v -0.01887600 -0.05045300 -0.01194200
v -0.01887600 -0.05045300 -0.01194200
v -0.01808200 -0.05045300 -0.01154500
v -0.01808200 -0.05045300 -0.01154500
v -0.01808200 -0.05045300 -0.01154500
v -0.01808200 -0.05124700 -0.01194200
v -0.01808200 -0.05124700 -0.01194200
v -0.01808200 -0.05124700 -0.01154500
v -0.01808200 -0.05124700 -0.01154500
v -0.01808200 -0.05124700 -0.01154500
v -0.01887600 -0.05124700 -0.01194200
v -0.01887600 -0.05124700 -0.01194200
v -0.01887600 -0.05124700 -0.01154500
v -0.01887600 -0.05124700 -0.01154500
v -0.01887600 -0.05124700 -0.01154500
vn -0.00000000 -0.00000000 1.00000000
vn 1.00000000 -0.00000000 -0.00000000
vn -0.00000000 1.00000000 -0.00000000
vn -0.00000000 -1.00000000 -0.00000000
vn 1.00000000 -0.00000000 -0.00000000
vn 1.00000000 -0.00000000 -0.00000000
vn -0.00000000 1.00000000 -0.00000000
vn -0.00000000 -0.00000000 1.00000000
vn 1.00000000 -0.00000000 -0.00000000
vn -0.00000000 -1.00000000 -0.00000000
vn -0.00000000 -1.00000000 -0.00000000
vn -1.00000000 -0.00000000 -0.00000000
vn -0.00000000 -1.00000000 -0.00000000
vn -0.00000000 -0.00000000 1.00000000
vn -1.00000000 -0.00000000 -0.00000000
vn -0.00000000 1.00000000 -0.00000000
vn -1.00000000 -0.00000000 -0.00000000
vn -1.00000000 -0.00000000 -0.00000000
vn -0.00000000 1.00000000 -0.00000000
vn -0.00000000 -0.00000000 1.00000000
vn -0.00000000 1.00000000 -0.00000000
vn -0.00000000 -0.00000000 1.00000000
vn -1.00000000 -0.00000000 -0.00000000
vn 1.00000000 -0.00000000 -0.00000000
vn -0.00000000 1.00000000 -0.00000000
vn -0.00000000 1.00000000 -0.00000000
vn -1.00000000 -0.00000000 -0.00000000
vn 1.00000000 -0.00000000 -0.00000000
vn -0.00000000 -0.00000000 1.00000000
vn -0.00000000 1.00000000 -0.00000000
vn 1.00000000 -0.00000000 -0.00000000
vn -0.00000000 -1.00000000 -0.00000000
vn -0.00000000 -0.00000000 1.00000000
vn -0.00000000 -1.00000000 -0.00000000
vn 1.00000000 -0.00000000 -0.00000000
vn -0.00000000 -1.00000000 -0.00000000
vn -1.00000000 -0.00000000 -0.00000000
vn -0.00000000 -0.00000000 1.00000000
vn -0.00000000 -1.00000000 -0.00000000
vn -1.00000000 -0.00000000 -0.00000000
f 2//2 5//5 6//6
f 2//2 9//9 5//5
f 10//10 11//11 4//4
f 10//10 13//13 11//11
f 15//15 17//17 12//12
f 15//15 18//18 17//17
f 19//19 7//7 16//16
f 19//19 3//3 7//7
f 20//20 14//14 8//8
f 20//20 8//8 1//1
f 21//21 25//25 26//26
f 21//21 30//30 25//25
f 28//28 31//31 24//24
f 28//28 35//35 31//31
f 34//34 36//36 32//32
f 34//34 39//39 36//36
f 40//40 27//27 37//37
f 40//40 23//23 27//27
f 22//22 38//38 33//33
f 22//22 33//33 29//29

